<mxfile host="app.diagrams.net" modified="2024-03-18T07:21:42.799Z" agent="Mozilla/5.0 (Windows NT 10.0; Win64; x64) AppleWebKit/537.36 (KHTML, like Gecko) Chrome/122.0.0.0 Safari/537.36" etag="9ChPJIGEQaRIKA4tANNi" version="24.0.7" type="device">
  <diagram name="Page-1" id="929967ad-93f9-6ef4-fab6-5d389245f69c">
    <mxGraphModel dx="1687" dy="2157" grid="1" gridSize="10" guides="1" tooltips="1" connect="1" arrows="1" fold="1" page="1" pageScale="1.5" pageWidth="1169" pageHeight="826" background="none" math="0" shadow="0">
      <root>
        <mxCell id="0" style=";html=1;" />
        <mxCell id="1" style=";html=1;" parent="0" />
        <mxCell id="EHIWK4PoxUBEeaWbb9Rx-39" value="Meteostation" style="shape=folder;fontStyle=1;spacingTop=10;tabWidth=40;tabHeight=14;tabPosition=left;html=1;whiteSpace=wrap;verticalAlign=top;fontSize=30;align=left;" vertex="1" parent="1">
          <mxGeometry x="280" y="-450" width="1190" height="840" as="geometry" />
        </mxCell>
        <mxCell id="EHIWK4PoxUBEeaWbb9Rx-40" style="edgeStyle=orthogonalEdgeStyle;rounded=0;orthogonalLoop=1;jettySize=auto;html=1;dashed=1;dashPattern=12 12;" edge="1" parent="1" source="EHIWK4PoxUBEeaWbb9Rx-1" target="EHIWK4PoxUBEeaWbb9Rx-7">
          <mxGeometry relative="1" as="geometry">
            <Array as="points">
              <mxPoint x="580" y="-40" />
              <mxPoint x="580" y="-40" />
            </Array>
          </mxGeometry>
        </mxCell>
        <mxCell id="EHIWK4PoxUBEeaWbb9Rx-41" value="&lt;font style=&quot;font-size: 20px;&quot;&gt;&amp;lt;&amp;lt;import&amp;gt;&amp;gt;&lt;/font&gt;" style="edgeLabel;html=1;align=center;verticalAlign=middle;resizable=0;points=[];" vertex="1" connectable="0" parent="EHIWK4PoxUBEeaWbb9Rx-40">
          <mxGeometry x="0.0594" y="3" relative="1" as="geometry">
            <mxPoint as="offset" />
          </mxGeometry>
        </mxCell>
        <mxCell id="EHIWK4PoxUBEeaWbb9Rx-1" value="Test" style="shape=folder;fontStyle=1;spacingTop=10;tabWidth=40;tabHeight=14;tabPosition=left;html=1;whiteSpace=wrap;verticalAlign=top;fontSize=20;" vertex="1" parent="1">
          <mxGeometry x="370" y="-110" width="170" height="140" as="geometry" />
        </mxCell>
        <mxCell id="EHIWK4PoxUBEeaWbb9Rx-38" value="" style="group" vertex="1" connectable="0" parent="1">
          <mxGeometry x="740" y="-430" width="700" height="780" as="geometry" />
        </mxCell>
        <mxCell id="EHIWK4PoxUBEeaWbb9Rx-7" value="WebServer" style="shape=folder;fontStyle=1;spacingTop=10;tabWidth=40;tabHeight=14;tabPosition=left;html=1;whiteSpace=wrap;verticalAlign=top;fontSize=20;" vertex="1" parent="EHIWK4PoxUBEeaWbb9Rx-38">
          <mxGeometry width="700" height="780" as="geometry" />
        </mxCell>
        <mxCell id="EHIWK4PoxUBEeaWbb9Rx-11" value="" style="group" vertex="1" connectable="0" parent="EHIWK4PoxUBEeaWbb9Rx-38">
          <mxGeometry x="40" y="80" width="300" height="250" as="geometry" />
        </mxCell>
        <mxCell id="EHIWK4PoxUBEeaWbb9Rx-2" value="wwwroot" style="shape=folder;fontStyle=1;spacingTop=10;tabWidth=40;tabHeight=14;tabPosition=left;html=1;whiteSpace=wrap;verticalAlign=top;fontSize=20;" vertex="1" parent="EHIWK4PoxUBEeaWbb9Rx-11">
          <mxGeometry width="300" height="250" as="geometry" />
        </mxCell>
        <mxCell id="EHIWK4PoxUBEeaWbb9Rx-8" value="css" style="shape=folder;fontStyle=1;spacingTop=10;tabWidth=40;tabHeight=14;tabPosition=left;html=1;whiteSpace=wrap;verticalAlign=top;fontSize=20;" vertex="1" parent="EHIWK4PoxUBEeaWbb9Rx-11">
          <mxGeometry x="20" y="50" width="130" height="80" as="geometry" />
        </mxCell>
        <mxCell id="EHIWK4PoxUBEeaWbb9Rx-9" value="js" style="shape=folder;fontStyle=1;spacingTop=10;tabWidth=40;tabHeight=14;tabPosition=left;html=1;whiteSpace=wrap;verticalAlign=top;fontSize=20;" vertex="1" parent="EHIWK4PoxUBEeaWbb9Rx-11">
          <mxGeometry x="160" y="50" width="130" height="80" as="geometry" />
        </mxCell>
        <mxCell id="EHIWK4PoxUBEeaWbb9Rx-10" value="resources" style="shape=folder;fontStyle=1;spacingTop=10;tabWidth=40;tabHeight=14;tabPosition=left;html=1;whiteSpace=wrap;verticalAlign=top;fontSize=20;" vertex="1" parent="EHIWK4PoxUBEeaWbb9Rx-11">
          <mxGeometry x="85" y="140" width="130" height="80" as="geometry" />
        </mxCell>
        <mxCell id="EHIWK4PoxUBEeaWbb9Rx-21" value="" style="group" vertex="1" connectable="0" parent="EHIWK4PoxUBEeaWbb9Rx-38">
          <mxGeometry x="360" y="70" width="320" height="260" as="geometry" />
        </mxCell>
        <mxCell id="EHIWK4PoxUBEeaWbb9Rx-3" value="Controllers" style="shape=folder;fontStyle=1;spacingTop=10;tabWidth=40;tabHeight=14;tabPosition=left;html=1;whiteSpace=wrap;verticalAlign=top;fontSize=20;" vertex="1" parent="EHIWK4PoxUBEeaWbb9Rx-21">
          <mxGeometry width="320" height="260" as="geometry" />
        </mxCell>
        <mxCell id="EHIWK4PoxUBEeaWbb9Rx-17" value="FieldMap" style="shape=folder;fontStyle=1;spacingTop=10;tabWidth=40;tabHeight=14;tabPosition=left;html=1;whiteSpace=wrap;verticalAlign=top;fontSize=20;" vertex="1" parent="EHIWK4PoxUBEeaWbb9Rx-21">
          <mxGeometry x="20" y="50" width="130" height="90" as="geometry" />
        </mxCell>
        <mxCell id="EHIWK4PoxUBEeaWbb9Rx-18" value="Home" style="shape=folder;fontStyle=1;spacingTop=10;tabWidth=40;tabHeight=14;tabPosition=left;html=1;whiteSpace=wrap;verticalAlign=top;fontSize=20;" vertex="1" parent="EHIWK4PoxUBEeaWbb9Rx-21">
          <mxGeometry x="170" y="50" width="130" height="90" as="geometry" />
        </mxCell>
        <mxCell id="EHIWK4PoxUBEeaWbb9Rx-19" value="Account" style="shape=folder;fontStyle=1;spacingTop=10;tabWidth=40;tabHeight=14;tabPosition=left;html=1;whiteSpace=wrap;verticalAlign=top;fontSize=20;" vertex="1" parent="EHIWK4PoxUBEeaWbb9Rx-21">
          <mxGeometry x="20" y="150" width="130" height="90" as="geometry" />
        </mxCell>
        <mxCell id="EHIWK4PoxUBEeaWbb9Rx-20" value="Analysis" style="shape=folder;fontStyle=1;spacingTop=10;tabWidth=40;tabHeight=14;tabPosition=left;html=1;whiteSpace=wrap;verticalAlign=top;fontSize=20;" vertex="1" parent="EHIWK4PoxUBEeaWbb9Rx-21">
          <mxGeometry x="170" y="150" width="130" height="90" as="geometry" />
        </mxCell>
        <mxCell id="EHIWK4PoxUBEeaWbb9Rx-27" value="" style="group" vertex="1" connectable="0" parent="EHIWK4PoxUBEeaWbb9Rx-38">
          <mxGeometry x="40" y="360" width="300" height="210" as="geometry" />
        </mxCell>
        <mxCell id="EHIWK4PoxUBEeaWbb9Rx-5" value="Models" style="shape=folder;fontStyle=1;spacingTop=10;tabWidth=40;tabHeight=14;tabPosition=left;html=1;whiteSpace=wrap;verticalAlign=top;fontSize=20;" vertex="1" parent="EHIWK4PoxUBEeaWbb9Rx-27">
          <mxGeometry width="300" height="210" as="geometry" />
        </mxCell>
        <mxCell id="EHIWK4PoxUBEeaWbb9Rx-22" value="Repository" style="shape=folder;fontStyle=1;spacingTop=10;tabWidth=40;tabHeight=14;tabPosition=left;html=1;whiteSpace=wrap;verticalAlign=top;fontSize=20;" vertex="1" parent="EHIWK4PoxUBEeaWbb9Rx-27">
          <mxGeometry x="20" y="55" width="123" height="95" as="geometry" />
        </mxCell>
        <mxCell id="EHIWK4PoxUBEeaWbb9Rx-23" value="Concrete Models" style="shape=folder;fontStyle=1;spacingTop=10;tabWidth=40;tabHeight=14;tabPosition=left;html=1;whiteSpace=wrap;verticalAlign=top;fontSize=20;" vertex="1" parent="EHIWK4PoxUBEeaWbb9Rx-27">
          <mxGeometry x="168.5" y="55" width="123" height="95" as="geometry" />
        </mxCell>
        <mxCell id="EHIWK4PoxUBEeaWbb9Rx-35" value="" style="group" vertex="1" connectable="0" parent="EHIWK4PoxUBEeaWbb9Rx-38">
          <mxGeometry x="360" y="360" width="320" height="380" as="geometry" />
        </mxCell>
        <mxCell id="EHIWK4PoxUBEeaWbb9Rx-6" value="Views" style="shape=folder;fontStyle=1;spacingTop=10;tabWidth=40;tabHeight=14;tabPosition=left;html=1;whiteSpace=wrap;verticalAlign=top;fontSize=20;" vertex="1" parent="EHIWK4PoxUBEeaWbb9Rx-35">
          <mxGeometry width="320" height="380" as="geometry" />
        </mxCell>
        <mxCell id="EHIWK4PoxUBEeaWbb9Rx-28" value="Account" style="shape=folder;fontStyle=1;spacingTop=10;tabWidth=40;tabHeight=14;tabPosition=left;html=1;whiteSpace=wrap;verticalAlign=top;fontSize=20;" vertex="1" parent="EHIWK4PoxUBEeaWbb9Rx-35">
          <mxGeometry x="10" y="50" width="130" height="95" as="geometry" />
        </mxCell>
        <mxCell id="EHIWK4PoxUBEeaWbb9Rx-29" value="Analysis" style="shape=folder;fontStyle=1;spacingTop=10;tabWidth=40;tabHeight=14;tabPosition=left;html=1;whiteSpace=wrap;verticalAlign=top;fontSize=20;" vertex="1" parent="EHIWK4PoxUBEeaWbb9Rx-35">
          <mxGeometry x="10" y="270" width="130" height="95" as="geometry" />
        </mxCell>
        <mxCell id="EHIWK4PoxUBEeaWbb9Rx-30" value="FieldMap" style="shape=folder;fontStyle=1;spacingTop=10;tabWidth=40;tabHeight=14;tabPosition=left;html=1;whiteSpace=wrap;verticalAlign=top;fontSize=20;" vertex="1" parent="EHIWK4PoxUBEeaWbb9Rx-35">
          <mxGeometry x="170" y="160" width="130" height="95" as="geometry" />
        </mxCell>
        <mxCell id="EHIWK4PoxUBEeaWbb9Rx-31" value="Home" style="shape=folder;fontStyle=1;spacingTop=10;tabWidth=40;tabHeight=14;tabPosition=left;html=1;whiteSpace=wrap;verticalAlign=top;fontSize=20;" vertex="1" parent="EHIWK4PoxUBEeaWbb9Rx-35">
          <mxGeometry x="10" y="160" width="130" height="95" as="geometry" />
        </mxCell>
        <mxCell id="EHIWK4PoxUBEeaWbb9Rx-32" value="Shared" style="shape=folder;fontStyle=1;spacingTop=10;tabWidth=40;tabHeight=14;tabPosition=left;html=1;whiteSpace=wrap;verticalAlign=top;fontSize=20;" vertex="1" parent="EHIWK4PoxUBEeaWbb9Rx-35">
          <mxGeometry x="170" y="50" width="130" height="95" as="geometry" />
        </mxCell>
        <mxCell id="EHIWK4PoxUBEeaWbb9Rx-36" value="" style="group" vertex="1" connectable="0" parent="EHIWK4PoxUBEeaWbb9Rx-38">
          <mxGeometry x="40" y="585" width="300" height="155" as="geometry" />
        </mxCell>
        <mxCell id="EHIWK4PoxUBEeaWbb9Rx-37" value="" style="group" vertex="1" connectable="0" parent="EHIWK4PoxUBEeaWbb9Rx-36">
          <mxGeometry width="300" height="155" as="geometry" />
        </mxCell>
        <mxCell id="EHIWK4PoxUBEeaWbb9Rx-4" value="Infrastructure" style="shape=folder;fontStyle=1;spacingTop=10;tabWidth=40;tabHeight=14;tabPosition=left;html=1;whiteSpace=wrap;verticalAlign=top;fontSize=20;" vertex="1" parent="EHIWK4PoxUBEeaWbb9Rx-37">
          <mxGeometry width="300" height="155" as="geometry" />
        </mxCell>
        <mxCell id="EHIWK4PoxUBEeaWbb9Rx-33" value="Statistics" style="shape=folder;fontStyle=1;spacingTop=10;tabWidth=40;tabHeight=14;tabPosition=left;html=1;whiteSpace=wrap;verticalAlign=top;fontSize=20;" vertex="1" parent="EHIWK4PoxUBEeaWbb9Rx-37">
          <mxGeometry x="165" y="45" width="130" height="90" as="geometry" />
        </mxCell>
        <mxCell id="EHIWK4PoxUBEeaWbb9Rx-34" value="Account" style="shape=folder;fontStyle=1;spacingTop=10;tabWidth=40;tabHeight=14;tabPosition=left;html=1;whiteSpace=wrap;verticalAlign=top;fontSize=20;" vertex="1" parent="EHIWK4PoxUBEeaWbb9Rx-37">
          <mxGeometry x="10" y="45" width="130" height="90" as="geometry" />
        </mxCell>
      </root>
    </mxGraphModel>
  </diagram>
</mxfile>
